<svg xmlns="http://www.w3.org/2000/svg" version="1.1" x="0" y="0" viewBox="0 0 55 35"><style>path.st0{fill: transparent;}</style><path class="st0" d="M27.47 34H11.1V7.17c.03.38.07.75.1 1.13a30.2 30.2 0 002.59 10.18c2.57 5.72 6.49 10.34 11.5 14.06.71.52 1.46.98 2.18 1.46zM43.9 8.25V34H27.58c.07-.06.13-.12.2-.17.8-.58 1.61-1.13 2.39-1.73 3.89-2.99 7.2-6.5 9.68-10.76 2.09-3.59 3.43-7.43 3.89-11.56.06-.51.11-1.02.16-1.53z"/><path d="M43.9 8.25l-.15 1.53c-.46 4.13-1.81 7.97-3.89 11.56-2.48 4.26-5.79 7.77-9.68 10.76-.78.6-1.59 1.15-2.39 1.73-.07.05-.13.11-.2.17h-.11c-.73-.49-1.48-.94-2.18-1.46-5.01-3.72-8.93-8.34-11.5-14.06A30.2 30.2 0 0111.21 8.3c-.03-.38-.07-.75-.1-1.13V4.89c.45-.25.88-.53 1.34-.76 3.82-1.92 7.89-2.97 12.14-3.31.4-.03.81-.07 1.21-.1h2.87l1.51.12c4.7.41 9.14 1.76 13.35 3.86.17.08.24.2.26.37.03.32.08.64.12.96-.01.74-.01 1.48-.01 2.22zM28.53 2.13c-4.44 0-7.6.48-10.65 1.45-1.79.57-3.53 1.27-5.15 2.24-.16.09-.22.2-.22.39.04.97.04 1.95.11 2.92.17 2.44.69 4.82 1.5 7.13 1.63 4.63 4.31 8.59 7.81 12.01 1.65 1.61 3.43 3.07 5.41 4.27.14.08.24.09.38-.01 2.05-1.39 3.99-2.93 5.76-4.67 4.89-4.84 8.1-10.54 8.92-17.47.17-1.42.21-2.85.02-4.27a.435.435 0 00-.22-.32c-4.69-2.37-9.64-3.66-13.67-3.67z"/><path class="st0" d="M43.9 6.03l-.12-.96c-.02-.17-.08-.29-.25-.37-4.22-2.1-8.65-3.45-13.35-3.86L28.67.72H43.9v5.31zM25.79.72c-.4.03-.81.07-1.21.1-4.25.34-8.32 1.39-12.14 3.31-.46.23-.89.51-1.34.76V.72h14.69z"/><path class="st0" d="M28.53 2.13c4.03.01 8.98 1.3 13.68 3.67.1.05.2.21.22.32.19 1.42.15 2.85-.02 4.27-.82 6.92-4.03 12.62-8.92 17.47-1.76 1.75-3.7 3.28-5.76 4.67-.14.1-.24.09-.38.01-1.98-1.19-3.76-2.65-5.41-4.27-3.5-3.42-6.18-7.38-7.81-12.01-.81-2.31-1.33-4.68-1.5-7.13-.07-.97-.07-1.95-.11-2.92-.01-.19.06-.29.22-.39 1.62-.97 3.36-1.67 5.15-2.24 3.04-.97 6.2-1.45 10.64-1.45zm-1.06 28.9c.11-.08.19-.12.26-.18a39.76 39.76 0 004.11-3.32c3.27-3.04 5.87-6.56 7.54-10.72 1.25-3.12 1.91-6.35 1.77-9.73-.01-.22-.08-.34-.28-.42-.38-.15-.74-.34-1.11-.5-3.44-1.5-7.03-2.4-10.78-2.61-2.55-.15-5.09.03-7.6.55-2.52.52-4.95 1.32-7.24 2.5-.19.1-.26.2-.25.42.07.97.1 1.95.2 2.92.27 2.66.97 5.21 2.04 7.66 2.08 4.76 5.25 8.67 9.29 11.9.66.53 1.36 1.02 2.05 1.53z"/><path d="M27.47 31.03c-.68-.51-1.39-.99-2.06-1.53-4.04-3.23-7.21-7.14-9.29-11.9-1.07-2.45-1.76-5-2.04-7.66-.1-.97-.13-1.95-.2-2.92-.02-.21.06-.32.25-.42 2.29-1.19 4.72-1.99 7.24-2.5 2.51-.51 5.04-.69 7.6-.55 3.75.21 7.34 1.11 10.78 2.61.37.16.73.35 1.11.5.2.08.28.2.28.42.14 3.38-.52 6.61-1.77 9.73-1.67 4.17-4.27 7.68-7.54 10.72a39.76 39.76 0 01-4.11 3.32l-.25.18z"/></svg>